PathFileType	4	(X/Y/Z)	0_coords_data.trc
DataRate	CameraRate	NumFrames	NumMarkers	Units	OrigDataRate	OrigDataStartFrame	OrigNumFrames
30.0	30.0	8	21	m	30.0	62	72
Frame#	Time	THUMB_TIP	THUMB_IP	THUMB_MCP	THUMB_CMC	INDEX_TIP	INDEX_DIP	INDEX_PIP	INDEX_MCP	MIDDLE_TIP	MIDDLE_DIP	MIDDLE_PIP	MIDDLE_MCP	RING_TIP	RING_DIP	RING_PIP	RING_MCP	PINKY_TIP	PINKY_DIP	PINKY_PIP	PINKY_MCP	WRIST
X1	Y1	Z1	X2	Y2	Z2	X3	Y3	Z3	X4	Y4	Z4	X5	Y5	Z5	X6	Y6	Z6	X7	Y7	Z7	X8	Y8	Z8	X9	Y9	Z9	X10	Y10	Z10	X11	Y11	Z11	X12	Y12	Z12	X13	Y13	Z13	X14	Y14	Z14	X15	Y15	Z15	X16	Y16	Z16	X17	Y17	Z17	X18	Y18	Z18	X19	Y19	Z19	X20	Y20	Z20	X21	Y21	Z21
61	2.033333333333333	0.036791099548339846	-0.05449399948120117	0.9795659790039063	0.02062929916381836	-0.042456600189208986	1.000780029296875	0.001333899974822998	-0.0410531005859375	1.02872998046875	-0.012227800369262696	-0.012434200286865234	1.045800048828125	0.004506810188293457	-0.03578409957885742	0.9046909790039063	-0.00622923994064331	-0.035155799865722655	0.9270560302734375	-0.016475000381469727	-0.03415290069580078	0.950051025390625	-0.03376850128173828	-0.030033500671386718	0.9878150024414063	0.007268149852752684	-0.00019142599403858103	0.8910469970703125	-0.00468621015548706	-0.001720839977264404	0.914718017578125	-0.01976409912109375	-0.0031281399726867673	0.9421439819335937	-0.03581639862060547	-0.004473470211029053	0.9820349731445313	0.003799400091171264	0.03352000045776367	0.8950120239257813	-0.006590280055999756	0.03005579948425293	0.9186179809570313	-0.01999300003051758	0.025693199157714845	0.9452579956054687	-0.028614000320434572	0.017751600265502928	0.9845490112304688	0.0076173701286315915	0.061360000610351566	0.9282050170898437	-0.003399490118026733	0.056693099975585935	0.9460330200195313	-0.01388889980316162	0.05102579879760742	0.9636810302734375	-0.021208099365234375	0.038928600311279295	0.9921649780273437	-0.04299069976806641	0.009333450317382813	1.07222998046875
62	2.066666666666667	0.035719799041748046	-0.05551750183105469	0.980552978515625	0.019616600036621093	-0.04282839965820313	1.0015900268554687	0.00025872701406478806	-0.04111410140991211	1.029260009765625	-0.012959099769592286	-0.012257100105285645	1.0461099853515625	0.004920060157775879	-0.03577410125732422	0.9052039794921874	-0.005979829788208007	-0.03502780151367187	0.9274210205078125	-0.016508899688720702	-0.03373590087890625	0.9505479736328125	-0.03409920120239258	-0.0295935001373291	0.9879710083007812	0.007665209770202637	3.0164500698447003e-05	0.8914949951171875	-0.0041908202171325685	-0.00155016005039215	0.9151439819335937	-0.01934760093688965	-0.002967420101165771	0.9425050048828125	-0.03585540008544922	-0.0041143798828125	0.9822490234375	0.004455560207366943	0.033514801025390624	0.895322021484375	-0.005985040187835694	0.030166099548339844	0.9189879760742188	-0.019456499099731444	0.025911500930786133	0.9455989990234375	-0.028736000061035157	0.01814240074157715	0.9850759887695313	0.008146599769592285	0.06196559906005859	0.9288070068359375	-0.00304308009147644	0.05722090148925781	0.9465029907226562	-0.013683600425720215	0.0515343017578125	0.964031982421875	-0.021326099395751953	0.03933100128173828	0.9924760131835938	-0.043804798126220706	0.009787799835205079	1.07252001953125
63	2.1	0.03498540115356445	-0.055038200378417966	0.9801480102539063	0.01914039993286133	-0.04248820114135742	1.00125	-0.00019766299426555601	-0.04078310012817383	1.0291800537109375	-0.01342549991607666	-0.01196030044555664	1.0461500244140625	0.0047240500450134275	-0.03467770004272461	0.9053380126953126	-0.006169000148773193	-0.03420750045776367	0.9272969970703125	-0.016914199829101563	-0.03310499954223633	0.9504329833984375	-0.034547100067138674	-0.029130199432373046	0.9879039916992187	0.006564780235290528	0.00081513100862503	0.89131298828125	-0.005057010173797607	-0.0008692449927330011	0.9150640258789062	-0.01997089958190918	-0.0023447599411010743	0.9425490112304687	-0.036450801849365236	-0.0036267900466918942	0.9823740234375	0.003365930080413818	0.034414798736572265	0.8953359985351562	-0.006990819931030273	0.03096619987487793	0.91910302734375	-0.02025740051269531	0.026472400665283204	0.9455280151367188	-0.02933139991760254	0.01858769989013672	0.9850059814453125	0.007118319988250733	0.06267380142211915	0.9288880004882812	-0.003931770086288452	0.05780300140380859	0.9466190185546876	-0.014558600425720216	0.05201639938354492	0.964176025390625	-0.022049999237060545	0.03978829956054687	0.992666015625	-0.044341201782226565	0.009890460014343261	1.07243994140625
64	2.1333333333333333	0.03529750061035156	-0.05358649826049805	0.979822021484375	0.019070199966430664	-0.0415255012512207	1.00102001953125	-0.000397118002176284	-0.040212398529052736	1.028780029296875	-0.013903900146484375	-0.011490300178527832	1.0457900390625	0.005259130001068115	-0.033275100708007814	0.9051719970703125	-0.005839580059051513	-0.0329375	0.9271959838867188	-0.016797399520874022	-0.032161701202392576	0.95027001953125	-0.03499240112304688	-0.028684900283813475	0.9877449951171875	0.006536530017852783	0.0020751500129699697	0.8911530151367187	-0.005268620014190674	0.00022574299573898302	0.9148839721679688	-0.020334400177001954	-0.0014540599584579462	0.9422750244140625	-0.036905799865722656	-0.0030965099334716788	0.982072021484375	0.0024967000484466552	0.03564459991455078	0.8952000122070313	-0.007808239936828614	0.03196419906616211	0.918947021484375	-0.02112260055541992	0.027342500686645507	0.9453800048828125	-0.03011549949645996	0.01917219924926758	0.984791015625	0.00607459020614624	0.06364459991455078	0.9288729858398438	-0.0048950200080871585	0.05867839813232422	0.9465059814453125	-0.01556630039215088	0.05273699951171875	0.9640759887695313	-0.022991100311279298	0.04040200042724609	0.992448974609375	-0.044899600982666016	0.010113800048828125	1.0718699951171875
65	2.1666666666666665	0.034464099884033206	-0.05398099899291992	0.9797860107421875	0.018262399673461913	-0.04185049819946289	1.0008499755859375	-0.001304649949073791	-0.040506900787353514	1.02856005859375	-0.014506699562072754	-0.011625300407409668	1.0455699462890624	0.004961070060729981	-0.03311759948730469	0.9049299926757812	-0.006222060203552246	-0.03271609878540039	0.9268939819335937	-0.017272600173950194	-0.03187649917602539	0.949864990234375	-0.03542620086669922	-0.028297199249267577	0.987197021484375	0.006686920166015625	0.002398910045623779	0.8909819946289063	-0.005153069972991944	0.0005336089730262751	0.9146240234375	-0.02020870018005371	-0.001221439957618713	0.941864013671875	-0.037079601287841796	-0.002762720108032226	0.9815880126953125	0.003166529893875122	0.036130401611328126	0.895291015625	-0.007198820114135742	0.032398399353027345	0.918697021484375	-0.020698200225830077	0.027739599227905275	0.9451420288085938	-0.030036500930786133	0.019447399139404298	0.98435400390625	0.007011829853057861	0.06386080169677734	0.9288690185546875	-0.0042374000549316405	0.05892369842529297	0.9464959716796875	-0.015032500267028808	0.05303089904785156	0.9639210205078125	-0.02276259994506836	0.04059140014648437	0.9921900024414062	-0.045338401794433596	0.010252400398254395	1.0715
66	2.2	0.03335770034790039	-0.05505970001220703	0.9793090209960937	0.017403600692749023	-0.04260760116577148	1.0005	-0.002005300045013427	-0.04098049926757812	1.02831005859375	-0.014841799736022948	-0.011960800170898438	1.04525	0.004352690219879151	-0.033603199005126955	0.9045910034179687	-0.006901130199432373	-0.03311439895629883	0.9267059936523437	-0.017808799743652345	-0.03210269927978516	0.9497109985351563	-0.036012401580810545	-0.02847570037841797	0.987052978515625	0.00599351978302002	0.0018026299476623531	0.8904970092773438	-0.005689129829406738	6.1588298529386e-05	0.9142999877929687	-0.02078429985046387	-0.001530830025672912	0.9416380004882813	-0.03765629959106445	-0.002853270053863525	0.9814819946289063	0.003071619987487793	0.035382301330566406	0.8947750244140625	-0.007467659950256347	0.031961599349975583	0.9186599731445313	-0.02086210060119629	0.027344100952148436	0.9448900146484375	-0.030164600372314453	0.01927589988708496	0.9841160278320312	0.0071296000480651845	0.06331060028076171	0.9284860229492188	-0.00414516019821167	0.058475399017333986	0.9461099853515625	-0.01506309986114502	0.05268310165405273	0.9636829833984375	-0.022792200088500976	0.04033140182495117	0.9919119873046875	-0.04542739868164063	0.01020359992980957	1.0711700439453125
67	2.2333333333333334	0.03290859985351562	-0.05518320083618164	0.978708984375	0.016966499328613282	-0.04278390121459961	0.9999429931640625	-0.002266779899597168	-0.041218799591064455	1.0278299560546875	-0.01504539966583252	-0.012168800354003906	1.0447900390625	0.004430190086364746	-0.033625	0.9044970092773438	-0.006937749862670898	-0.033245601654052735	0.92652001953125	-0.018114200592041017	-0.03229019927978516	0.9495349731445313	-0.03649209976196289	-0.02882710075378418	0.9868049926757813	0.005720489978790283	0.001300369977951049	0.89027099609375	-0.005944950103759766	-0.00038291698694229104	0.9140150146484375	-0.021063600540161133	-0.001899899959564209	0.941375	-0.037974700927734376	-0.00319638991355896	0.9810869750976563	0.002414309978485107	0.03477899932861328	0.8943419799804687	-0.00806348991394043	0.03135009956359863	0.918030029296875	-0.021463699340820312	0.0269237003326416	0.944323974609375	-0.030592199325561523	0.01898900032043457	0.9837369995117188	0.006445000171661377	0.06282569885253907	0.9278579711914062	-0.004752039909362793	0.05809500122070312	0.9455570068359375	-0.015638999938964844	0.052345901489257815	0.9631790161132813	-0.023310699462890626	0.04010459899902344	0.9915289916992187	-0.04572460174560547	0.009965330123901368	1.0711400146484376
68	2.2666666666666666	0.03238610076904297	-0.05616669845581055	0.9786209716796875	0.016457399368286132	-0.04352920150756836	0.9998280029296875	-0.002897279977798462	-0.04158750152587891	1.027739990234375	-0.015530500411987305	-0.012314499855041504	1.044489990234375	0.00486536979675293	-0.033991500854492186	0.9043839721679687	-0.0066241598129272465	-0.03354119873046875	0.9263499755859375	-0.01799329948425293	-0.0324630012512207	0.9493319702148437	-0.036551300048828124	-0.028766500473022462	0.986260986328125	0.005981249809265137	0.000871267020702362	0.8898480224609375	-0.005631720066070557	-0.0007141370177268981	0.9136300048828125	-0.02073539924621582	-0.002061350107192993	0.9409769897460938	-0.03797990036010742	-0.003229759931564331	0.9804439697265624	0.0029225399494171144	0.03437620162963867	0.8938699951171875	-0.007625790119171143	0.031061599731445313	0.9175989990234374	-0.02116869926452637	0.026723199844360352	0.9438410034179687	-0.030453699111938477	0.01896179962158203	0.9832839965820312	0.007012569904327392	0.06254660034179688	0.9273489990234375	-0.0042677497863769535	0.05792990112304688	0.9450139770507813	-0.015274900436401367	0.05227019882202148	0.9626849975585937	-0.02305459976196289	0.04003250122070313	0.9910150146484376	-0.04589640045166016	0.010097000122070312	1.07043994140625
